<svg width="33" height="32" viewBox="0 0 33 32" fill="none" xmlns="http://www.w3.org/2000/svg">
<rect x="0.458748" y="-0.10791" width="31.9587" height="32.6689" fill="#1F2D23"/>
<path d="M8.24427 25.1752L25.406 25.1752" stroke="#487555" stroke-linecap="round"/>
<path d="M7.90639 24.8044C7.71187 25.0004 7.71187 25.3182 7.90639 25.5142C8.10091 25.7102 8.41629 25.7102 8.6108 25.5142L7.90639 24.8044ZM25.7641 8.022C25.7641 7.7448 25.5411 7.5201 25.266 7.5201L20.7831 7.5201C20.5081 7.5201 20.285 7.7448 20.285 8.02199C20.285 8.29919 20.5081 8.52389 20.7831 8.52389L24.7679 8.52389L24.7679 12.5391C24.7679 12.8163 24.9909 13.041 25.266 13.041C25.5411 13.041 25.7641 12.8163 25.7641 12.5391L25.7641 8.022ZM8.6108 25.5142L25.6182 8.37689L24.9138 7.6671L7.90639 24.8044L8.6108 25.5142Z" fill="#487555"/>
<path d="M8.43578 7.52007C8.16069 7.52007 7.93768 7.74478 7.93768 8.02197L7.93768 12.5391C7.93768 12.8163 8.16069 13.041 8.43578 13.041C8.71087 13.041 8.93387 12.8163 8.93387 12.5391L8.93387 8.52387L12.9186 8.52387C13.1937 8.52387 13.4167 8.29916 13.4167 8.02197C13.4167 7.74478 13.1937 7.52007 12.9186 7.52007L8.43578 7.52007ZM25.091 25.5142C25.2855 25.7102 25.6009 25.7102 25.7954 25.5142C25.9899 25.3182 25.9899 25.0004 25.7954 24.8044L25.091 25.5142ZM8.08357 8.37687L25.091 25.5142L25.7954 24.8044L8.78798 7.66708L8.08357 8.37687Z" fill="#487555"/>
</svg>
