<svg width="81" height="75" viewBox="0 0 81 75" fill="none" xmlns="http://www.w3.org/2000/svg">
<path d="M8.36934 39.4701L19.8757 31.4904L19.9931 37.3578L12.5961 42.0517V63.0571H24.2199V0.510498L50.9897 16.0005V32.4292L46.2932 34.3068V19.4035L28.6815 9.31161V67.8683H8.36934V39.4701Z" fill="#C1A45C"/>
<path d="M33.378 67.8683V45.1028L50.9897 38.0619V50.1488H46.2932V45.1028L37.37 48.3885V63.0571H50.9897V67.8683H33.378Z" fill="#C1A45C"/>
<path d="M55.4513 26.0924V67.8683H72.7108V50.1488H67.7795V63.0571H59.6781V32.6639L67.7795 35.4802V45.1028H72.7108V32.1945L55.4513 26.0924Z" fill="#C1A45C"/>
<path d="M4.49476 55.1947V71.1541H76.5854V55.1947H80.46V74.5572H0.267944V55.1947H4.49476Z" fill="#C1A45C"/>
</svg>
