<svg width="279" height="54" viewBox="0 0 279 54" fill="none" xmlns="http://www.w3.org/2000/svg">
<path d="M227.904 28.3084L236.059 22.5911L236.142 26.795L230.9 30.1581V45.2079H239.138V0.394775L258.112 11.4929V23.2637L254.783 24.609V13.9312L242.301 6.70056V48.655H227.904V28.3084Z" fill="#B5AA48"/>
<path d="M245.629 48.655V32.3441L258.112 27.2994V35.9594H254.783V32.3441L248.459 34.6982V45.2079H258.112V48.655H245.629Z" fill="#B5AA48"/>
<path d="M261.274 18.7236V48.655H273.508V35.9594H270.012V45.2079H264.27V23.4319L270.012 25.4497V32.3441H273.508V23.0956L261.274 18.7236Z" fill="#B5AA48"/>
<path d="M225.157 39.5747V51.0092H276.254V39.5747H279V53.4474H222.162V39.5747H225.157Z" fill="#B5AA48"/>
<path d="M6.4199 16.6477C5.17096 16.6477 4.11011 16.4211 3.23736 15.9679C2.36461 15.5148 1.58214 14.8501 0.889954 13.974L2.65051 12.2067C3.08689 12.8411 3.60602 13.3396 4.20792 13.7021C4.80982 14.0496 5.57724 14.2233 6.51019 14.2233C7.38294 14.2233 8.07512 14.042 8.58674 13.6795C9.1134 13.317 9.37673 12.8185 9.37673 12.1841C9.37673 11.6554 9.2413 11.2249 8.97045 10.8926C8.6996 10.5602 8.33846 10.2884 7.88703 10.0769C7.45065 9.8503 6.96161 9.65393 6.4199 9.48777C5.89324 9.30651 5.35905 9.11014 4.81735 8.89867C4.29068 8.67209 3.80164 8.39264 3.35022 8.06033C2.91384 7.72801 2.56022 7.29751 2.28937 6.76883C2.01851 6.24014 1.88309 5.56796 1.88309 4.75227C1.88309 3.81575 2.1088 3.02272 2.56022 2.3732C3.0267 1.70856 3.65117 1.20254 4.43364 0.855115C5.2161 0.507694 6.08886 0.333984 7.0519 0.333984C8.09017 0.333984 9.01559 0.537905 9.82816 0.945748C10.6558 1.35359 11.3254 1.87472 11.837 2.50914L10.0764 4.27646C9.62501 3.76288 9.15102 3.38525 8.65445 3.14356C8.17293 2.88677 7.61618 2.75838 6.98418 2.75838C6.20171 2.75838 5.58477 2.91698 5.13334 3.23419C4.69697 3.5514 4.47878 3.99701 4.47878 4.57101C4.47878 5.05438 4.6142 5.44712 4.88506 5.74922C5.15591 6.03622 5.50953 6.28546 5.94591 6.49693C6.39733 6.6933 6.88637 6.88212 7.41304 7.06338C7.95474 7.24464 8.48893 7.44856 9.01559 7.67514C9.5573 7.90172 10.0463 8.19627 10.4827 8.5588C10.9341 8.90622 11.2953 9.35938 11.5661 9.91828C11.837 10.4772 11.9724 11.1796 11.9724 12.0255C11.9724 13.4454 11.4683 14.5707 10.4602 15.4015C9.46702 16.2323 8.12027 16.6477 6.4199 16.6477Z" fill="white"/>
<path d="M17.9626 16.4211V1.01372H20.5583V16.4211H17.9626ZM12.8164 2.93964V0.560562H25.7045V2.93964H12.8164Z" fill="white"/>
<path d="M24.7218 16.4211L31.2223 0.560562H33.028L39.4834 16.4211H36.6846L31.6286 3.57406H32.5766L27.4755 16.4211H24.7218ZM27.9269 13.3623V11.0965H36.3008V13.3623H27.9269Z" fill="white"/>
<path d="M43.6471 16.4211V1.01372H46.2428V16.4211H43.6471ZM38.5008 2.93964V0.560562H51.389V2.93964H38.5008Z" fill="white"/>
<path d="M53.7621 16.4211V0.560562H56.3578V16.4211H53.7621ZM55.5453 16.4211V14.042H64.3932V16.4211H55.5453ZM55.5453 9.46512V7.17667H63.6258V9.46512H55.5453ZM55.5453 2.93964V0.560562H64.2803V2.93964H55.5453Z" fill="white"/>
<path d="M78.9977 16.6477C77.854 16.6477 76.7932 16.4437 75.8151 16.0359C74.8521 15.613 74.0094 15.0314 73.2871 14.2912C72.5649 13.536 72.0081 12.6674 71.6169 11.6856C71.2256 10.6886 71.03 9.62372 71.03 8.49083C71.03 7.35793 71.2256 6.30056 71.6169 5.31872C72.0081 4.32177 72.5649 3.45322 73.2871 2.71306C74.0094 1.97291 74.8521 1.39135 75.8151 0.968405C76.7932 0.545457 77.854 0.333984 78.9977 0.333984C80.2767 0.333984 81.3827 0.545457 82.3156 0.968405C83.2486 1.39135 84.0762 1.96535 84.7985 2.69041L83.0379 4.45772C82.5714 3.94414 81.9996 3.54385 81.3225 3.25685C80.6604 2.96985 79.8855 2.82635 78.9977 2.82635C78.2152 2.82635 77.5004 2.9623 76.8534 3.23419C76.2063 3.50609 75.6421 3.89883 75.1605 4.41241C74.6941 4.91088 74.3329 5.50754 74.0771 6.20238C73.8213 6.89722 73.6934 7.66004 73.6934 8.49083C73.6934 9.32162 73.8213 10.0844 74.0771 10.7793C74.3329 11.4741 74.6941 12.0783 75.1605 12.5919C75.6421 13.0904 76.2063 13.4756 76.8534 13.7475C77.5004 14.0194 78.2152 14.1553 78.9977 14.1553C79.9607 14.1553 80.7733 14.0118 81.4354 13.7248C82.1125 13.4227 82.6843 13.0149 83.1508 12.5013L84.9113 14.2686C84.189 15.0087 83.3389 15.5903 82.3608 16.0132C81.3827 16.4362 80.2616 16.6477 78.9977 16.6477Z" fill="white"/>
<path d="M93.9691 16.6477C92.8405 16.6477 91.7872 16.4362 90.8091 16.0132C89.831 15.5903 88.9733 15.0087 88.236 14.2686C87.4987 13.5133 86.9193 12.6448 86.498 11.6629C86.0917 10.666 85.8886 9.60106 85.8886 8.46817C85.8886 7.33527 86.0917 6.27791 86.498 5.29606C86.9193 4.31422 87.4911 3.45322 88.2134 2.71306C88.9507 1.9578 89.8009 1.37625 90.764 0.968405C91.742 0.545457 92.7954 0.333984 93.9239 0.333984C95.0525 0.333984 96.0983 0.545457 97.0613 0.968405C98.0394 1.37625 98.8971 1.9578 99.6345 2.71306C100.372 3.45322 100.944 4.32177 101.35 5.31872C101.771 6.30056 101.982 7.35793 101.982 8.49083C101.982 9.62372 101.771 10.6886 101.35 11.6856C100.944 12.6674 100.372 13.5284 99.6345 14.2686C98.9122 15.0087 98.062 15.5903 97.0839 16.0132C96.1209 16.4362 95.0826 16.6477 93.9691 16.6477ZM93.9239 14.1553C94.9923 14.1553 95.9252 13.9136 96.7228 13.4302C97.5353 12.9469 98.1673 12.2822 98.6187 11.4364C99.0852 10.5754 99.3185 9.58596 99.3185 8.46817C99.3185 7.63738 99.183 6.88212 98.9122 6.20238C98.6564 5.50754 98.2877 4.91088 97.8062 4.41241C97.3247 3.89883 96.7529 3.50609 96.0908 3.23419C95.4437 2.9623 94.7214 2.82635 93.9239 2.82635C92.8706 2.82635 91.9377 3.06804 91.1251 3.55141C90.3276 4.01967 89.6956 4.67675 89.2291 5.52264C88.7777 6.36854 88.552 7.35038 88.552 8.46817C88.552 9.29896 88.6799 10.0693 88.9357 10.7793C89.2065 11.4741 89.5752 12.0708 90.0417 12.5692C90.5232 13.0677 91.095 13.4605 91.7571 13.7475C92.4192 14.0194 93.1415 14.1553 93.9239 14.1553Z" fill="white"/>
<path d="M110.829 16.6477C109.64 16.6477 108.571 16.3758 107.623 15.832C106.675 15.2882 105.923 14.548 105.366 13.6115C104.825 12.6599 104.554 11.5874 104.554 10.3941V0.560562H107.149V10.3714C107.149 11.1418 107.307 11.814 107.623 12.388C107.954 12.9469 108.398 13.3849 108.955 13.7021C109.512 14.0042 110.136 14.1553 110.829 14.1553C111.536 14.1553 112.16 14.0042 112.702 13.7021C113.244 13.3849 113.673 12.9469 113.989 12.388C114.305 11.814 114.463 11.1494 114.463 10.3941V0.560562H117.058V10.4167C117.058 11.6101 116.787 12.675 116.246 13.6115C115.704 14.548 114.967 15.2882 114.034 15.832C113.101 16.3758 112.032 16.6477 110.829 16.6477Z" fill="white"/>
<path d="M120.431 16.4211V0.560562H122.237L123.027 3.55141V16.4211H120.431ZM131.378 16.4211L121.921 4.02722L122.237 0.560562L131.694 12.9544L131.378 16.4211ZM131.378 16.4211L130.588 13.6342V0.560562H133.184V16.4211H131.378Z" fill="white"/>
<path d="M140.695 16.4211V1.01372H143.291V16.4211H140.695ZM135.549 2.93964V0.560562H148.437V2.93964H135.549Z" fill="white"/>
<path d="M154.762 10.0769L148.6 0.560562H151.602L156.409 8.15096H155.01L159.818 0.560562H162.774L156.567 10.0769H154.762ZM154.401 16.4211V8.44551H156.996V16.4211H154.401Z" fill="white"/>
<path d="M176.266 16.6477C175.123 16.6477 174.062 16.4437 173.084 16.0359C172.121 15.613 171.278 15.0314 170.556 14.2912C169.834 13.536 169.277 12.6674 168.886 11.6856C168.494 10.6886 168.299 9.62372 168.299 8.49083C168.299 7.35793 168.494 6.30056 168.886 5.31872C169.277 4.32177 169.834 3.45322 170.556 2.71306C171.278 1.97291 172.121 1.39135 173.084 0.968405C174.062 0.545457 175.123 0.333984 176.266 0.333984C177.545 0.333984 178.651 0.545457 179.584 0.968405C180.517 1.39135 181.345 1.96535 182.067 2.69041L180.307 4.45772C179.84 3.94414 179.268 3.54385 178.591 3.25685C177.929 2.96985 177.154 2.82635 176.266 2.82635C175.484 2.82635 174.769 2.9623 174.122 3.23419C173.475 3.50609 172.911 3.89883 172.429 4.41241C171.963 4.91088 171.602 5.50754 171.346 6.20238C171.09 6.89722 170.962 7.66004 170.962 8.49083C170.962 9.32162 171.09 10.0844 171.346 10.7793C171.602 11.4741 171.963 12.0783 172.429 12.5919C172.911 13.0904 173.475 13.4756 174.122 13.7475C174.769 14.0194 175.484 14.1553 176.266 14.1553C177.229 14.1553 178.042 14.0118 178.704 13.7248C179.381 13.4227 179.953 13.0149 180.419 12.5013L182.18 14.2686C181.458 15.0087 180.608 15.5903 179.629 16.0132C178.651 16.4362 177.53 16.6477 176.266 16.6477Z" fill="white"/>
<path d="M184.609 16.4211V0.560562H187.205V16.4211H184.609Z" fill="white"/>
<path d="M194.712 16.4211V1.01372H197.308V16.4211H194.712ZM189.566 2.93964V0.560562H202.454V2.93964H189.566Z" fill="white"/>
<path d="M208.778 10.0769L202.616 0.560562H205.618L210.426 8.15096H209.027L213.834 0.560562H216.791L210.584 10.0769H208.778ZM208.417 16.4211V8.44551H211.013V16.4211H208.417Z" fill="white"/>
<path d="M11.5777 53.8896C9.55182 53.8896 7.73144 53.4327 6.11659 52.519C4.5311 51.6054 3.26858 50.3527 2.32903 48.7611C1.41884 47.1696 0.963745 45.3717 0.963745 43.3675V23.5611H2.37307V43.1022C2.37307 45.018 2.76944 46.6833 3.56219 48.098C4.38429 49.5127 5.48533 50.6033 6.86529 51.3696C8.27462 52.1359 9.84543 52.519 11.5777 52.519C13.3394 52.519 14.9102 52.1359 16.2902 51.3696C17.6701 50.6033 18.7565 49.5127 19.5492 48.098C20.3713 46.6833 20.7824 45.0327 20.7824 43.1464V23.5611H22.1917V43.4117C22.1917 45.4159 21.7219 47.2138 20.7824 48.8054C19.8722 50.3675 18.6097 51.6054 16.9948 52.519C15.4093 53.4327 13.6036 53.8896 11.5777 53.8896Z" fill="white"/>
<path d="M31.225 40.7148V39.4327H41.3545C42.8226 39.4327 44.1291 39.138 45.2742 38.5485C46.4193 37.959 47.3148 37.119 47.9607 36.0285C48.636 34.938 48.9737 33.6411 48.9737 32.138C48.9737 30.6348 48.636 29.338 47.9607 28.2475C47.3148 27.1569 46.4193 26.3169 45.2742 25.7275C44.1291 25.138 42.8226 24.8433 41.3545 24.8433H31.225V23.5611H41.5747C43.2777 23.5611 44.7898 23.9148 46.111 24.6222C47.4322 25.3296 48.4746 26.3317 49.2379 27.6285C50.0307 28.8959 50.4271 30.399 50.4271 32.138C50.4271 33.8769 50.0307 35.3948 49.2379 36.6917C48.4746 37.959 47.4322 38.9464 46.111 39.6538C44.7898 40.3611 43.2777 40.7148 41.5747 40.7148H31.225ZM30.5203 53.4475V23.5611H31.9297V53.4475H30.5203Z" fill="white"/>
<path d="M57.014 53.4475V23.5611H58.4233V53.4475H57.014ZM57.8067 53.4475V52.1654H75.071V53.4475H57.8067Z" fill="white"/>
<path d="M81.5722 53.4475V23.5611H82.9816V53.4475H81.5722Z" fill="white"/>
<path d="M91.7224 53.4475V23.5611H93.1317V53.4475H91.7224ZM92.5152 39.2559V37.9738H109.295V39.2559H92.5152ZM92.5152 24.8433V23.5611H110.044V24.8433H92.5152Z" fill="white"/>
<path d="M124.838 53.4475V24.4011H126.247V53.4475H124.838ZM113.519 24.8433V23.5611H137.566V24.8433H113.519Z" fill="white"/>
<path d="M144.065 53.4475V23.5611H145.474V53.4475H144.065Z" fill="white"/>
<path d="M154.215 53.4475V23.5611H155.272L155.624 25.418V53.4475H154.215ZM174.782 53.4475L154.963 25.4622L155.272 23.5611L175.09 51.5464L174.782 53.4475ZM174.782 53.4475L174.43 51.5906V23.5611H175.839V53.4475H174.782Z" fill="white"/>
<path d="M198.1 53.8454C195.927 53.8454 193.916 53.4622 192.066 52.6959C190.246 51.9296 188.66 50.8685 187.31 49.5127C185.989 48.1275 184.961 46.5064 184.227 44.6496C183.493 42.7633 183.126 40.7148 183.126 38.5043C183.126 36.2938 183.493 34.2601 184.227 32.4033C184.99 30.5169 186.047 28.8811 187.398 27.4959C188.748 26.0811 190.334 24.9906 192.154 24.2243C193.975 23.458 195.971 23.0748 198.144 23.0748C200.581 23.0748 202.798 23.5759 204.794 24.578C206.791 25.5506 208.406 26.9506 209.639 28.778L208.582 29.839C207.407 28.1001 205.925 26.7738 204.134 25.8601C202.372 24.9169 200.375 24.4454 198.144 24.4454C195.531 24.4454 193.197 25.0643 191.141 26.3022C189.115 27.5106 187.515 29.1759 186.341 31.298C185.196 33.4201 184.623 35.8369 184.623 38.5485C184.623 41.2306 185.196 43.6327 186.341 45.7548C187.486 47.8475 189.057 49.498 191.053 50.7064C193.079 51.8854 195.399 52.4748 198.012 52.4748C200.478 52.4748 202.622 51.9443 204.442 50.8833C206.262 49.8222 207.672 48.3043 208.67 46.3296C209.697 44.3254 210.226 41.9527 210.255 39.2117L210.784 39.6538H197.483V38.3717H211.709V38.6369C211.709 41.8201 211.151 44.5464 210.035 46.8159C208.919 49.0854 207.334 50.8243 205.279 52.0327C203.253 53.2411 200.86 53.8454 198.1 53.8454Z" fill="white"/>
</svg>
