<svg width="86" height="117" viewBox="0 0 86 117" fill="none" xmlns="http://www.w3.org/2000/svg">
<path d="M4.12484 86.0568C3.49016 86.0568 2.90402 85.9786 2.36642 85.822C1.83628 85.6579 1.3808 85.4342 1 85.1509L1.44801 84.0212C1.70188 84.2002 1.96695 84.3531 2.24322 84.4798C2.51949 84.5991 2.81442 84.6923 3.12803 84.7594C3.44163 84.8191 3.7739 84.8489 4.12484 84.8489C4.71471 84.8489 5.14032 84.752 5.40166 84.5581C5.66299 84.3642 5.79366 84.1107 5.79366 83.7976C5.79366 83.5217 5.70406 83.3129 5.52486 83.1712C5.34565 83.0221 5.02458 82.8991 4.56164 82.8021L3.29603 82.5449C2.57175 82.3957 2.03041 82.146 1.67201 81.7955C1.3136 81.4451 1.1344 80.9753 1.1344 80.3862C1.1344 79.8941 1.26507 79.4654 1.52641 79.1C1.78774 78.7347 2.15361 78.4513 2.62402 78.25C3.09443 78.0487 3.64323 77.948 4.27044 77.948C4.83045 77.948 5.34939 78.03 5.82726 78.1941C6.30513 78.3506 6.7046 78.5781 7.02568 78.8763L6.57767 79.95C6.2566 79.6816 5.90566 79.484 5.52486 79.3573C5.14405 79.223 4.71845 79.1559 4.24804 79.1559C3.7179 79.1559 3.3035 79.2603 3.00483 79.4691C2.71362 79.6704 2.56802 79.95 2.56802 80.308C2.56802 80.5838 2.65762 80.8038 2.83682 80.9678C3.02349 81.1319 3.3371 81.2586 3.77763 81.3481L5.03205 81.5942C5.77873 81.7433 6.33127 81.9894 6.68967 82.3324C7.04808 82.6679 7.22728 83.1227 7.22728 83.6969C7.22728 84.1666 7.10034 84.5805 6.84647 84.9384C6.5926 85.2888 6.2342 85.5647 5.77126 85.766C5.30832 85.9599 4.75951 86.0568 4.12484 86.0568Z" fill="white"/>
<path d="M12.3741 86.0568C11.5527 86.0568 10.8471 85.8928 10.2573 85.5647C9.67486 85.2292 9.22685 84.7594 8.91325 84.1555C8.59964 83.544 8.44284 82.8245 8.44284 81.9968C8.44284 81.1692 8.59964 80.4534 8.91325 79.8494C9.22685 79.2454 9.67486 78.7794 10.2573 78.4513C10.8471 78.1158 11.5527 77.948 12.3741 77.948C12.9266 77.948 13.4232 78.0263 13.8637 78.1829C14.3117 78.3395 14.6963 78.5706 15.0173 78.8763L14.5469 80.0172C14.196 79.7338 13.8562 79.5325 13.5277 79.4132C13.2066 79.2864 12.837 79.223 12.4189 79.223C11.6199 79.223 11.0077 79.4654 10.5821 79.95C10.1639 80.4273 9.95486 81.1095 9.95486 81.9968C9.95486 82.8841 10.1639 83.5701 10.5821 84.0548C11.0077 84.5395 11.6199 84.7818 12.4189 84.7818C12.837 84.7818 13.2066 84.7222 13.5277 84.6028C13.8562 84.4761 14.196 84.2673 14.5469 83.9765L15.0173 85.1173C14.6963 85.4156 14.3117 85.6467 13.8637 85.8108C13.4232 85.9748 12.9266 86.0568 12.3741 86.0568Z" fill="white"/>
<path d="M19.9018 86.0568C19.0805 86.0568 18.3749 85.8928 17.785 85.5647C17.2026 85.2292 16.7546 84.7594 16.441 84.1555C16.1274 83.544 15.9706 82.8245 15.9706 81.9968C15.9706 81.1692 16.1274 80.4534 16.441 79.8494C16.7546 79.2454 17.2026 78.7794 17.785 78.4513C18.3749 78.1158 19.0805 77.948 19.9018 77.948C20.4544 77.948 20.9509 78.0263 21.3914 78.1829C21.8394 78.3395 22.224 78.5706 22.545 78.8763L22.0746 80.0172C21.7237 79.7338 21.384 79.5325 21.0554 79.4132C20.7344 79.2864 20.3647 79.223 19.9466 79.223C19.1477 79.223 18.5354 79.4654 18.1098 79.95C17.6917 80.4273 17.4826 81.1095 17.4826 81.9968C17.4826 82.8841 17.6917 83.5701 18.1098 84.0548C18.5354 84.5395 19.1477 84.7818 19.9466 84.7818C20.3647 84.7818 20.7344 84.7222 21.0554 84.6028C21.384 84.4761 21.7237 84.2673 22.0746 83.9765L22.545 85.1173C22.224 85.4156 21.8394 85.6467 21.3914 85.8108C20.9509 85.9748 20.4544 86.0568 19.9018 86.0568Z" fill="white"/>
<path d="M30.4858 86.0568C29.3583 86.0568 28.5183 85.7772 27.9657 85.218C27.4207 84.6513 27.1481 83.8162 27.1481 82.7126V78.0598H28.5929V82.7015C28.5929 83.4024 28.7423 83.9318 29.041 84.2897C29.3471 84.6476 29.8287 84.8265 30.4858 84.8265C31.113 84.8265 31.5834 84.6476 31.897 84.2897C32.2181 83.9318 32.3786 83.4024 32.3786 82.7015V78.0598H33.801V82.7126C33.801 83.8162 33.521 84.6513 32.961 85.218C32.4085 85.7772 31.5834 86.0568 30.4858 86.0568Z" fill="white"/>
<path d="M35.5957 85.945V78.0598H39.1013C39.9674 78.0598 40.6283 78.2686 41.0837 78.6862C41.5392 79.1037 41.7669 79.6779 41.7669 80.4086C41.7669 81.1319 41.5392 81.706 41.0837 82.131C40.6283 82.5561 39.9674 82.7686 39.1013 82.7686H37.0405V85.945H35.5957ZM37.0405 81.6277H38.9333C39.4112 81.6277 39.7696 81.5233 40.0085 81.3146C40.2474 81.0983 40.3669 80.7963 40.3669 80.4086C40.3669 80.0209 40.2474 79.7226 40.0085 79.5138C39.7696 79.2976 39.4112 79.1895 38.9333 79.1895H37.0405V81.6277Z" fill="white"/>
<path d="M43.1671 85.945V78.0598H44.6119V84.7259H48.3304V85.945H43.1671Z" fill="white"/>
<path d="M49.5464 85.945V78.0598H50.9912V85.945H49.5464Z" fill="white"/>
<path d="M52.8412 85.945V78.0598H58.0493V79.1895H54.2861V81.4264H57.7917V82.5561H54.2861V85.945H52.8412Z" fill="white"/>
<path d="M61.3094 85.945V79.2454H58.6998V78.0598H65.3639V79.2454H62.7542V85.945H61.3094Z" fill="white"/>
<path d="M66.4967 85.945V78.0598H67.9415V85.945H66.4967Z" fill="white"/>
<path d="M69.7915 85.945V78.0598H70.8779L75.4588 83.9765H75.1676V78.0598H76.5116V85.945H75.4252L70.8555 80.0283H71.1355V85.945H69.7915Z" fill="white"/>
<path d="M82.1664 86.0568C81.2778 86.0568 80.5311 85.8928 79.9263 85.5647C79.3215 85.2366 78.8661 84.7706 78.5599 84.1666C78.2538 83.5627 78.1007 82.8469 78.1007 82.0192C78.1007 81.1841 78.265 80.4645 78.5935 79.8606C78.9221 79.2491 79.3925 78.7794 80.0047 78.4513C80.6245 78.1158 81.3674 77.948 82.2336 77.948C82.8085 77.948 83.3125 78.0263 83.7456 78.1829C84.1787 78.332 84.5595 78.552 84.888 78.8428L84.4064 79.9612C84.1675 79.7748 83.9397 79.6257 83.7232 79.5138C83.5067 79.402 83.2826 79.3237 83.0512 79.279C82.8197 79.2268 82.5509 79.2007 82.2448 79.2007C81.3786 79.2007 80.7216 79.4467 80.2735 79.9389C79.833 80.4235 79.6127 81.1207 79.6127 82.0304C79.6127 82.9401 79.8218 83.6335 80.2399 84.1107C80.6655 84.5879 81.3301 84.8265 82.2336 84.8265C82.5397 84.8265 82.8458 84.7967 83.152 84.7371C83.4656 84.6774 83.7717 84.5917 84.0704 84.4798L83.8016 85.0838V82.7238H81.9536V81.6725H85V85.4641C84.6341 85.6505 84.1973 85.7959 83.6896 85.9003C83.1818 86.0047 82.6741 86.0568 82.1664 86.0568Z" fill="white"/>
<line x1="1" y1="88.9844" x2="85" y2="88.9844" stroke="#C1A45C" stroke-width="2"/>
<g filter="url(#filter0_d_300_155)">
<path d="M10.9133 39.151L22.4986 31.1321L22.6168 37.0284L15.1691 41.7454V62.8539H26.8726V0L53.8261 15.5661V32.0755L49.0974 33.9623V18.9859L31.3649 8.84436V67.6888H10.9133V39.151Z" fill="white"/>
<path d="M36.0935 67.6888V44.8114L53.8261 37.7359V49.8822H49.0974V44.8114L40.1129 48.1133V62.8539H53.8261V67.6888H36.0935Z" fill="white"/>
<path d="M58.3184 25.7076V67.6888H75.6963V49.8822H70.7312V62.8539H62.5742V32.3114L70.7312 35.1416V44.8114H75.6963V31.8397L58.3184 25.7076Z" fill="white"/>
<path d="M7.01209 54.9529V70.9907H79.5975V54.9529H83.4987V74.4105H2.75626V54.9529H7.01209Z" fill="white"/>
</g>
<path d="M1.98 101.139C2.22933 101.198 2.48966 101.227 2.761 101.227C2.98833 101.227 3.223 101.201 3.465 101.15C3.707 101.099 3.927 101.007 4.125 100.875C4.33033 100.736 4.49533 100.549 4.62 100.314C4.752 100.072 4.818 99.764 4.818 99.39C4.818 99.0747 4.774 98.818 4.686 98.62C4.598 98.422 4.47333 98.268 4.312 98.158C4.158 98.048 3.96733 97.9747 3.74 97.938C3.51266 97.894 3.256 97.872 2.97 97.872H1.98V101.139ZM1.078 100.314C1.078 99.83 1.067 99.357 1.045 98.895C1.03033 98.4257 1.012 97.949 0.989998 97.465C1.166 97.4797 1.342 97.4944 1.518 97.509C1.70133 97.5164 1.881 97.52 2.057 97.52C2.145 97.52 2.25133 97.5164 2.376 97.509C2.50066 97.5017 2.62533 97.498 2.75 97.498C2.882 97.4907 3.00666 97.4834 3.124 97.476C3.24133 97.4687 3.34033 97.465 3.421 97.465C3.531 97.465 3.66666 97.4687 3.828 97.476C3.98933 97.4834 4.158 97.5054 4.334 97.542C4.51733 97.5787 4.697 97.6337 4.873 97.707C5.049 97.7804 5.20666 97.8867 5.346 98.026C5.49266 98.1654 5.61 98.3414 5.698 98.554C5.786 98.7594 5.83 99.016 5.83 99.324C5.83 99.808 5.72366 100.2 5.511 100.501C5.30566 100.802 5.049 101.036 4.741 101.205C4.44033 101.374 4.11766 101.487 3.773 101.546C3.43566 101.605 3.135 101.634 2.871 101.634C2.70233 101.634 2.54833 101.634 2.409 101.634C2.26966 101.627 2.12666 101.616 1.98 101.601V102.206C1.98 102.69 1.98733 103.167 2.002 103.636C2.024 104.105 2.046 104.567 2.068 105.022C1.89933 105.007 1.71966 105 1.529 105C1.33833 105 1.15866 105.007 0.989998 105.022C1.012 104.567 1.03033 104.105 1.045 103.636C1.067 103.167 1.078 102.69 1.078 102.206V100.314Z" fill="#C1A45C"/>
<path d="M7.6303 100.314C7.6303 99.83 7.6193 99.357 7.5973 98.895C7.58264 98.4257 7.5643 97.949 7.5423 97.465C7.63764 97.4797 7.7293 97.4944 7.8173 97.509C7.9053 97.5164 7.9933 97.52 8.0813 97.52C8.1693 97.52 8.2573 97.5164 8.3453 97.509C8.4333 97.4944 8.52497 97.4797 8.6203 97.465C8.5983 97.949 8.5763 98.4257 8.5543 98.895C8.53964 99.357 8.5323 99.83 8.5323 100.314V102.206C8.5323 102.69 8.53964 103.167 8.5543 103.636C8.5763 104.105 8.5983 104.567 8.6203 105.022C8.45164 105.007 8.27197 105 8.0813 105C7.89064 105 7.71097 105.007 7.5423 105.022C7.5643 104.567 7.58264 104.105 7.5973 103.636C7.6193 103.167 7.6303 102.69 7.6303 102.206V100.314Z" fill="#C1A45C"/>
<path d="M11.1318 100.314C11.1318 99.83 11.1208 99.357 11.0988 98.895C11.0842 98.4257 11.0658 97.949 11.0438 97.465C11.1392 97.4797 11.2308 97.4944 11.3188 97.509C11.4068 97.5164 11.4948 97.52 11.5828 97.52C11.6708 97.52 11.7588 97.5164 11.8468 97.509C11.9348 97.4944 12.0265 97.4797 12.1218 97.465C12.0998 97.949 12.0778 98.4257 12.0558 98.895C12.0412 99.357 12.0338 99.83 12.0338 100.314C12.0338 101.238 12.0375 102.041 12.0448 102.723C12.0522 103.398 12.0595 104.003 12.0668 104.538C12.5875 104.538 13.0862 104.534 13.5628 104.527C14.0395 104.512 14.5528 104.468 15.1028 104.395C15.0662 104.527 15.0478 104.637 15.0478 104.725C15.0478 104.806 15.0662 104.905 15.1028 105.022C14.7655 105.007 14.4282 105 14.0908 105C13.7535 105 13.4162 105 13.0788 105C12.7268 105 12.3858 105 12.0558 105C11.7332 105 11.3958 105.007 11.0438 105.022C11.0658 104.567 11.0842 104.105 11.0988 103.636C11.1208 103.167 11.1318 102.69 11.1318 102.206V100.314Z" fill="#C1A45C"/>
<path d="M17.0718 100.314C17.0718 99.83 17.0608 99.357 17.0388 98.895C17.0242 98.4257 17.0058 97.949 16.9838 97.465C17.0792 97.4797 17.1708 97.4944 17.2588 97.509C17.3468 97.5164 17.4348 97.52 17.5228 97.52C17.6108 97.52 17.6988 97.5164 17.7868 97.509C17.8748 97.4944 17.9665 97.4797 18.0618 97.465C18.0398 97.949 18.0178 98.4257 17.9958 98.895C17.9812 99.357 17.9738 99.83 17.9738 100.314C17.9738 101.238 17.9775 102.041 17.9848 102.723C17.9922 103.398 17.9995 104.003 18.0068 104.538C18.5275 104.538 19.0262 104.534 19.5028 104.527C19.9795 104.512 20.4928 104.468 21.0428 104.395C21.0062 104.527 20.9878 104.637 20.9878 104.725C20.9878 104.806 21.0062 104.905 21.0428 105.022C20.7055 105.007 20.3682 105 20.0308 105C19.6935 105 19.3562 105 19.0188 105C18.6668 105 18.3258 105 17.9958 105C17.6732 105 17.3358 105.007 16.9838 105.022C17.0058 104.567 17.0242 104.105 17.0388 103.636C17.0608 103.167 17.0718 102.69 17.0718 102.206V100.314Z" fill="#C1A45C"/>
<path d="M24.2108 101.601C24.4015 101.601 24.5995 101.605 24.8048 101.612C25.0102 101.619 25.2082 101.623 25.3988 101.623C25.6042 101.623 25.8095 101.623 26.0148 101.623C26.2202 101.616 26.4255 101.608 26.6308 101.601L25.4098 98.807L24.2108 101.601ZM29.0838 105.022C28.9812 105.007 28.8822 105 28.7868 105C28.6988 105 28.6035 105 28.5008 105C28.3982 105 28.2992 105 28.2038 105C28.1158 105 28.0205 105.007 27.9178 105.022C27.8665 104.853 27.7968 104.652 27.7088 104.417C27.6208 104.175 27.5218 103.926 27.4118 103.669C27.3092 103.405 27.2028 103.141 27.0928 102.877C26.9828 102.606 26.8802 102.349 26.7848 102.107C26.5502 102.1 26.3118 102.096 26.0698 102.096C25.8278 102.089 25.5858 102.085 25.3438 102.085C25.1165 102.085 24.8928 102.089 24.6728 102.096C24.4528 102.096 24.2292 102.1 24.0018 102.107C23.7672 102.679 23.5545 103.225 23.3638 103.746C23.1732 104.259 23.0302 104.685 22.9348 105.022C22.8102 105.007 22.6745 105 22.5278 105C22.3812 105 22.2455 105.007 22.1208 105.022C22.7148 103.739 23.2942 102.463 23.8588 101.194C24.4235 99.9254 24.9918 98.6347 25.5638 97.322H25.7728C25.9488 97.7474 26.1395 98.2094 26.3448 98.708C26.5502 99.1994 26.7592 99.698 26.9718 100.204C27.1845 100.71 27.3972 101.212 27.6098 101.711C27.8225 102.21 28.0205 102.675 28.2038 103.108C28.3945 103.533 28.5632 103.915 28.7098 104.252C28.8638 104.589 28.9885 104.846 29.0838 105.022Z" fill="#C1A45C"/>
<path d="M30.7887 100.314C30.7887 99.83 30.7777 99.357 30.7557 98.895C30.7411 98.4257 30.7227 97.949 30.7007 97.465C30.9134 97.4797 31.1224 97.4944 31.3277 97.509C31.5331 97.5164 31.7421 97.52 31.9547 97.52C32.1674 97.52 32.3764 97.5127 32.5817 97.498C32.7871 97.476 32.9961 97.465 33.2087 97.465C33.5167 97.465 33.8101 97.4944 34.0887 97.553C34.3674 97.6117 34.6094 97.7107 34.8147 97.85C35.0274 97.982 35.1924 98.158 35.3097 98.378C35.4344 98.598 35.4967 98.873 35.4967 99.203C35.4967 99.555 35.4161 99.8594 35.2547 100.116C35.1007 100.365 34.9101 100.574 34.6827 100.743C34.4554 100.904 34.2097 101.033 33.9457 101.128C33.6891 101.216 33.4544 101.275 33.2417 101.304C33.3297 101.414 33.4507 101.568 33.6047 101.766C33.7587 101.964 33.9311 102.184 34.1217 102.426C34.3124 102.661 34.5104 102.91 34.7157 103.174C34.9211 103.431 35.1191 103.68 35.3097 103.922C35.5004 104.157 35.6801 104.373 35.8487 104.571C36.0174 104.769 36.1531 104.919 36.2557 105.022C36.1457 105.007 36.0357 105 35.9257 105C35.8157 105 35.7057 105 35.5957 105C35.4931 105 35.3867 105 35.2767 105C35.1667 105 35.0604 105.007 34.9577 105.022C34.8477 104.868 34.6791 104.637 34.4517 104.329C34.2317 104.021 33.9861 103.691 33.7147 103.339C33.4434 102.987 33.1647 102.639 32.8787 102.294C32.6001 101.942 32.3434 101.645 32.1087 101.403H31.6907V102.206C31.6907 102.69 31.6981 103.167 31.7127 103.636C31.7347 104.105 31.7567 104.567 31.7787 105.022C31.6101 105.007 31.4304 105 31.2397 105C31.0491 105 30.8694 105.007 30.7007 105.022C30.7227 104.567 30.7411 104.105 30.7557 103.636C30.7777 103.167 30.7887 102.69 30.7887 102.206V100.314ZM31.6907 100.941C31.7934 100.963 31.9034 100.978 32.0207 100.985C32.1454 100.992 32.2811 100.996 32.4277 100.996C32.6551 100.996 32.8897 100.97 33.1317 100.919C33.3811 100.868 33.6084 100.78 33.8137 100.655C34.0191 100.523 34.1877 100.351 34.3197 100.138C34.4591 99.918 34.5287 99.643 34.5287 99.313C34.5287 99.027 34.4737 98.7924 34.3637 98.609C34.2611 98.4184 34.1254 98.268 33.9567 98.158C33.7881 98.048 33.6047 97.9747 33.4067 97.938C33.2087 97.894 33.0144 97.872 32.8237 97.872C32.5671 97.872 32.3544 97.8794 32.1857 97.894C32.0171 97.9014 31.8741 97.9124 31.7567 97.927C31.7421 98.3304 31.7274 98.73 31.7127 99.126C31.6981 99.522 31.6907 99.918 31.6907 100.314V100.941Z" fill="#C1A45C"/>
<path d="M37.7113 103.592C37.77 103.724 37.847 103.86 37.9423 103.999C38.045 104.131 38.166 104.252 38.3053 104.362C38.452 104.472 38.6207 104.564 38.8113 104.637C39.002 104.703 39.2147 104.736 39.4493 104.736C39.6913 104.736 39.9077 104.696 40.0983 104.615C40.2963 104.527 40.4613 104.413 40.5933 104.274C40.7327 104.127 40.839 103.959 40.9123 103.768C40.9857 103.57 41.0223 103.361 41.0223 103.141C41.0223 102.804 40.9343 102.536 40.7583 102.338C40.5897 102.14 40.377 101.975 40.1203 101.843C39.8637 101.711 39.585 101.59 39.2843 101.48C38.991 101.37 38.716 101.234 38.4593 101.073C38.2027 100.904 37.9863 100.692 37.8103 100.435C37.6417 100.178 37.5573 99.8337 37.5573 99.401C37.5573 99.093 37.6123 98.8144 37.7223 98.565C37.8323 98.3084 37.99 98.0884 38.1953 97.905C38.408 97.7217 38.661 97.5787 38.9543 97.476C39.2477 97.3734 39.5777 97.322 39.9443 97.322C40.2963 97.322 40.6007 97.366 40.8573 97.454C41.114 97.5347 41.3523 97.663 41.5723 97.839C41.5063 97.9637 41.4513 98.0957 41.4073 98.235C41.3633 98.3744 41.3193 98.5504 41.2753 98.763H41.1433C41.1067 98.6604 41.0553 98.5504 40.9893 98.433C40.9307 98.3084 40.8463 98.1947 40.7363 98.092C40.6337 97.9894 40.509 97.905 40.3623 97.839C40.2157 97.7657 40.0397 97.729 39.8343 97.729C39.629 97.729 39.4383 97.762 39.2623 97.828C39.0937 97.894 38.9433 97.9894 38.8113 98.114C38.6867 98.2314 38.5877 98.3744 38.5143 98.543C38.4483 98.7117 38.4153 98.895 38.4153 99.093C38.4153 99.4377 38.4997 99.709 38.6683 99.907C38.8443 100.105 39.0607 100.274 39.3173 100.413C39.574 100.545 39.849 100.666 40.1423 100.776C40.443 100.879 40.7217 101.007 40.9783 101.161C41.235 101.315 41.4477 101.513 41.6163 101.755C41.7923 101.997 41.8803 102.32 41.8803 102.723C41.8803 103.06 41.818 103.379 41.6933 103.68C41.576 103.981 41.4 104.245 41.1653 104.472C40.938 104.692 40.6557 104.864 40.3183 104.989C39.9883 105.106 39.6107 105.165 39.1853 105.165C38.7307 105.165 38.3603 105.106 38.0743 104.989C37.7957 104.864 37.561 104.725 37.3703 104.571C37.4363 104.402 37.4803 104.252 37.5023 104.12C37.5317 103.981 37.5573 103.805 37.5793 103.592H37.7113Z" fill="#C1A45C"/>
<path d="M46.7789 101.26C46.7789 100.637 46.8779 100.083 47.0759 99.599C47.2812 99.1077 47.5635 98.6934 47.9229 98.356C48.2895 98.0187 48.7259 97.762 49.2319 97.586C49.7379 97.41 50.2915 97.322 50.8929 97.322C51.5015 97.322 52.0589 97.41 52.5649 97.586C53.0709 97.762 53.5035 98.0187 53.8629 98.356C54.2295 98.6934 54.5119 99.1077 54.7099 99.599C54.9152 100.083 55.0179 100.637 55.0179 101.26C55.0179 101.883 54.9152 102.441 54.7099 102.932C54.5119 103.416 54.2295 103.827 53.8629 104.164C53.5035 104.501 53.0709 104.754 52.5649 104.923C52.0589 105.084 51.5015 105.165 50.8929 105.165C50.2915 105.165 49.7379 105.084 49.2319 104.923C48.7259 104.754 48.2895 104.501 47.9229 104.164C47.5635 103.827 47.2812 103.416 47.0759 102.932C46.8779 102.441 46.7789 101.883 46.7789 101.26ZM53.9399 101.26C53.9399 100.651 53.8629 100.127 53.7089 99.687C53.5549 99.2397 53.3385 98.873 53.0599 98.587C52.7885 98.2937 52.4659 98.0774 52.0919 97.938C51.7252 97.7987 51.3255 97.729 50.8929 97.729C50.4675 97.729 50.0679 97.7987 49.6939 97.938C49.3272 98.0774 49.0045 98.2937 48.7259 98.587C48.4545 98.873 48.2419 99.2397 48.0879 99.687C47.9339 100.127 47.8569 100.651 47.8569 101.26C47.8569 101.869 47.9339 102.397 48.0879 102.844C48.2419 103.284 48.4545 103.651 48.7259 103.944C49.0045 104.23 49.3272 104.443 49.6939 104.582C50.0679 104.721 50.4675 104.791 50.8929 104.791C51.3255 104.791 51.7252 104.721 52.0919 104.582C52.4659 104.443 52.7885 104.23 53.0599 103.944C53.3385 103.651 53.5549 103.284 53.7089 102.844C53.8629 102.397 53.9399 101.869 53.9399 101.26Z" fill="#C1A45C"/>
<path d="M56.998 100.314C56.998 99.83 56.987 99.357 56.965 98.895C56.9503 98.4257 56.932 97.949 56.91 97.465C57.24 97.4797 57.5663 97.4944 57.889 97.509C58.219 97.5164 58.549 97.52 58.879 97.52C59.209 97.52 59.5426 97.5164 59.88 97.509C60.2173 97.4944 60.584 97.4797 60.98 97.465C60.958 97.575 60.947 97.685 60.947 97.795C60.947 97.905 60.958 98.015 60.98 98.125C60.782 98.103 60.5436 98.0847 60.265 98.07C59.9863 98.048 59.7003 98.0334 59.407 98.026C59.121 98.0114 58.8423 98.0004 58.571 97.993C58.307 97.9857 58.087 97.982 57.911 97.982C57.9036 98.2387 57.8963 98.4844 57.889 98.719C57.889 98.9537 57.889 99.1884 57.889 99.423C57.889 99.6797 57.889 99.918 57.889 100.138C57.8963 100.351 57.9 100.574 57.9 100.809C58.384 100.809 58.8606 100.802 59.33 100.787C59.8066 100.772 60.276 100.743 60.738 100.699C60.7086 100.809 60.694 100.919 60.694 101.029C60.694 101.139 60.7086 101.249 60.738 101.359C60.5546 101.337 60.3456 101.322 60.111 101.315C59.8836 101.3 59.6453 101.289 59.396 101.282C59.1466 101.275 58.8936 101.271 58.637 101.271C58.3803 101.271 58.1346 101.271 57.9 101.271V102.206C57.9 102.69 57.9073 103.167 57.922 103.636C57.944 104.105 57.966 104.567 57.988 105.022C57.8193 105.007 57.6396 105 57.449 105C57.2583 105 57.0786 105.007 56.91 105.022C56.932 104.567 56.9503 104.105 56.965 103.636C56.987 103.167 56.998 102.69 56.998 102.206V100.314Z" fill="#C1A45C"/>
<path d="M67.1521 100.314C67.1521 99.5514 67.1411 98.7924 67.1191 98.037C66.9284 98.037 66.7267 98.0407 66.5141 98.048C66.3087 98.048 66.0997 98.0554 65.8871 98.07C65.6817 98.0774 65.4801 98.0884 65.2821 98.103C65.0914 98.1177 64.9191 98.136 64.7651 98.158C64.8017 98.026 64.8201 97.9087 64.8201 97.806C64.8201 97.7254 64.8017 97.6117 64.7651 97.465C65.2491 97.4797 65.7221 97.4944 66.1841 97.509C66.6461 97.5164 67.1191 97.52 67.6031 97.52C68.0871 97.52 68.5601 97.5164 69.0221 97.509C69.4841 97.4944 69.9571 97.4797 70.4411 97.465C70.4044 97.6117 70.3861 97.729 70.3861 97.817C70.3861 97.9124 70.4044 98.026 70.4411 98.158C70.2871 98.136 70.1111 98.1177 69.9131 98.103C69.7224 98.0884 69.5207 98.0774 69.3081 98.07C69.1027 98.0554 68.8937 98.048 68.6811 98.048C68.4757 98.0407 68.2777 98.037 68.0871 98.037C68.0651 98.7924 68.0541 99.5514 68.0541 100.314V102.206C68.0541 102.69 68.0614 103.167 68.0761 103.636C68.0981 104.105 68.1201 104.567 68.1421 105.022C67.9734 105.007 67.7937 105 67.6031 105C67.4124 105 67.2327 105.007 67.0641 105.022C67.0861 104.567 67.1044 104.105 67.1191 103.636C67.1411 103.167 67.1521 102.69 67.1521 102.206V100.314Z" fill="#C1A45C"/>
<path d="M77.6754 100.314C77.6754 99.83 77.6644 99.357 77.6424 98.895C77.6277 98.4257 77.6094 97.949 77.5874 97.465C77.6827 97.4797 77.7744 97.4944 77.8624 97.509C77.9504 97.5164 78.0384 97.52 78.1264 97.52C78.2144 97.52 78.3024 97.5164 78.3904 97.509C78.4784 97.4944 78.57 97.4797 78.6654 97.465C78.6434 97.949 78.6214 98.4257 78.5994 98.895C78.5847 99.357 78.5774 99.83 78.5774 100.314V102.206C78.5774 102.69 78.5847 103.167 78.5994 103.636C78.6214 104.105 78.6434 104.567 78.6654 105.022C78.4967 105.007 78.317 105 78.1264 105C77.9357 105 77.756 105.007 77.5874 105.022C77.6094 104.567 77.6277 104.105 77.6424 103.636C77.6644 103.167 77.6754 102.69 77.6754 102.206V101.216C77.2794 101.209 76.8944 101.205 76.5204 101.205C76.1537 101.198 75.7724 101.194 75.3764 101.194C74.9804 101.194 74.5954 101.198 74.2214 101.205C73.8547 101.205 73.4734 101.209 73.0774 101.216V102.206C73.0774 102.69 73.0847 103.167 73.0994 103.636C73.1214 104.105 73.1434 104.567 73.1654 105.022C72.9967 105.007 72.817 105 72.6264 105C72.4357 105 72.256 105.007 72.0874 105.022C72.1094 104.567 72.1277 104.105 72.1424 103.636C72.1644 103.167 72.1754 102.69 72.1754 102.206V100.314C72.1754 99.83 72.1644 99.357 72.1424 98.895C72.1277 98.4257 72.1094 97.949 72.0874 97.465C72.1827 97.4797 72.2744 97.4944 72.3624 97.509C72.4504 97.5164 72.5384 97.52 72.6264 97.52C72.7144 97.52 72.8024 97.5164 72.8904 97.509C72.9784 97.4944 73.07 97.4797 73.1654 97.465C73.1434 97.949 73.1214 98.4257 73.0994 98.895C73.0847 99.357 73.0774 99.83 73.0774 100.314V100.699C73.4734 100.706 73.8547 100.714 74.2214 100.721C74.5954 100.728 74.9804 100.732 75.3764 100.732C75.7724 100.732 76.1537 100.728 76.5204 100.721C76.8944 100.714 77.2794 100.706 77.6754 100.699V100.314Z" fill="#C1A45C"/>
<path d="M81.1769 100.303C81.1769 99.819 81.1659 99.3424 81.1439 98.873C81.1292 98.4037 81.1109 97.9344 81.0889 97.465C81.4189 97.4797 81.7452 97.4944 82.0679 97.509C82.3979 97.5164 82.7279 97.52 83.0579 97.52C83.3879 97.52 83.7142 97.5164 84.0369 97.509C84.3596 97.4944 84.6859 97.4797 85.0159 97.465C84.9939 97.575 84.9829 97.685 84.9829 97.795C84.9829 97.905 84.9939 98.015 85.0159 98.125C84.7812 98.1104 84.5649 98.0957 84.3669 98.081C84.1762 98.0664 83.9709 98.0517 83.7509 98.037C83.5382 98.0224 83.3036 98.0114 83.0469 98.004C82.7902 97.9894 82.4822 97.982 82.1229 97.982C82.1156 98.2167 82.1046 98.4404 82.0899 98.653C82.0826 98.8657 82.0789 99.1077 82.0789 99.379C82.0789 99.665 82.0789 99.9437 82.0789 100.215C82.0862 100.486 82.0899 100.692 82.0899 100.831C82.4126 100.831 82.7022 100.827 82.9589 100.82C83.2156 100.813 83.4502 100.805 83.6629 100.798C83.8756 100.783 84.0699 100.772 84.2459 100.765C84.4292 100.75 84.6016 100.736 84.7629 100.721C84.7409 100.831 84.7299 100.945 84.7299 101.062C84.7299 101.172 84.7409 101.282 84.7629 101.392C84.5722 101.37 84.3486 101.352 84.0919 101.337C83.8426 101.322 83.5896 101.315 83.3329 101.315C83.0836 101.308 82.8452 101.304 82.6179 101.304C82.3979 101.297 82.2219 101.293 82.0899 101.293C82.0899 101.359 82.0862 101.432 82.0789 101.513C82.0789 101.586 82.0789 101.682 82.0789 101.799V102.228V102.888C82.0789 103.306 82.0789 103.651 82.0789 103.922C82.0862 104.193 82.0936 104.399 82.1009 104.538C82.3429 104.538 82.5996 104.538 82.8709 104.538C83.1496 104.538 83.4209 104.534 83.6849 104.527C83.9562 104.512 84.2092 104.498 84.4439 104.483C84.6859 104.461 84.8949 104.432 85.0709 104.395C85.0562 104.446 85.0452 104.505 85.0379 104.571C85.0379 104.63 85.0379 104.685 85.0379 104.736C85.0379 104.853 85.0489 104.949 85.0709 105.022C84.7409 105.007 84.4109 105 84.0809 105C83.7582 105 83.4282 105 83.0909 105C82.7536 105 82.4199 105 82.0899 105C81.7599 105 81.4262 105.007 81.0889 105.022C81.1109 104.553 81.1292 104.087 81.1439 103.625C81.1659 103.156 81.1769 102.679 81.1769 102.195V100.303Z" fill="#C1A45C"/>
<path d="M7.38 115.532C7.308 115.596 7.192 115.668 7.032 115.748C6.88 115.82 6.692 115.888 6.468 115.952C6.252 116.008 6.008 116.06 5.736 116.108C5.464 116.156 5.18 116.18 4.884 116.18C4.252 116.18 3.668 116.092 3.132 115.916C2.596 115.732 2.132 115.456 1.74 115.088C1.356 114.72 1.052 114.272 0.827998 113.744C0.611998 113.208 0.503998 112.6 0.503998 111.92C0.503998 111.24 0.611998 110.636 0.827998 110.108C1.052 109.572 1.36 109.12 1.752 108.752C2.152 108.384 2.628 108.104 3.18 107.912C3.732 107.72 4.34 107.624 5.004 107.624C5.532 107.624 6.012 107.68 6.444 107.792C6.884 107.896 7.272 108.024 7.608 108.176C7.544 108.288 7.492 108.44 7.452 108.632C7.412 108.824 7.38 108.984 7.356 109.112L7.284 109.136C7.204 109.04 7.092 108.932 6.948 108.812C6.804 108.692 6.636 108.576 6.444 108.464C6.252 108.352 6.036 108.26 5.796 108.188C5.556 108.108 5.292 108.068 5.004 108.068C4.532 108.068 4.092 108.144 3.684 108.296C3.284 108.448 2.932 108.684 2.628 109.004C2.332 109.316 2.1 109.716 1.932 110.204C1.764 110.684 1.68 111.256 1.68 111.92C1.68 112.584 1.764 113.16 1.932 113.648C2.1 114.128 2.332 114.528 2.628 114.848C2.932 115.16 3.284 115.392 3.684 115.544C4.092 115.696 4.532 115.772 5.004 115.772C5.292 115.772 5.556 115.736 5.796 115.664C6.044 115.592 6.268 115.508 6.468 115.412C6.676 115.308 6.86 115.2 7.02 115.088C7.188 114.968 7.328 114.864 7.44 114.776L7.488 114.824L7.38 115.532Z" fill="#C1A45C"/>
<path d="M9.8279 111.92C9.8279 111.24 9.9359 110.636 10.1519 110.108C10.3759 109.572 10.6839 109.12 11.0759 108.752C11.4759 108.384 11.9519 108.104 12.5039 107.912C13.0559 107.72 13.6599 107.624 14.3159 107.624C14.9799 107.624 15.5879 107.72 16.1399 107.912C16.6919 108.104 17.1639 108.384 17.5559 108.752C17.9559 109.12 18.2639 109.572 18.4799 110.108C18.7039 110.636 18.8159 111.24 18.8159 111.92C18.8159 112.6 18.7039 113.208 18.4799 113.744C18.2639 114.272 17.9559 114.72 17.5559 115.088C17.1639 115.456 16.6919 115.732 16.1399 115.916C15.5879 116.092 14.9799 116.18 14.3159 116.18C13.6599 116.18 13.0559 116.092 12.5039 115.916C11.9519 115.732 11.4759 115.456 11.0759 115.088C10.6839 114.72 10.3759 114.272 10.1519 113.744C9.9359 113.208 9.8279 112.6 9.8279 111.92ZM17.6399 111.92C17.6399 111.256 17.5559 110.684 17.3879 110.204C17.2199 109.716 16.9839 109.316 16.6799 109.004C16.3839 108.684 16.0319 108.448 15.6239 108.296C15.2239 108.144 14.7879 108.068 14.3159 108.068C13.8519 108.068 13.4159 108.144 13.0079 108.296C12.6079 108.448 12.2559 108.684 11.9519 109.004C11.6559 109.316 11.4239 109.716 11.2559 110.204C11.0879 110.684 11.0039 111.256 11.0039 111.92C11.0039 112.584 11.0879 113.16 11.2559 113.648C11.4239 114.128 11.6559 114.528 11.9519 114.848C12.2559 115.16 12.6079 115.392 13.0079 115.544C13.4159 115.696 13.8519 115.772 14.3159 115.772C14.7879 115.772 15.2239 115.696 15.6239 115.544C16.0319 115.392 16.3839 115.16 16.6799 114.848C16.9839 114.528 17.2199 114.128 17.3879 113.648C17.5559 113.16 17.6399 112.584 17.6399 111.92Z" fill="#C1A45C"/>
<path d="M22.584 107.624C23.136 108.76 23.692 109.864 24.252 110.936C24.82 112.008 25.412 113.108 26.028 114.236C26.108 114.084 26.224 113.868 26.376 113.588C26.528 113.3 26.704 112.972 26.904 112.604C27.104 112.236 27.316 111.84 27.54 111.416C27.772 110.984 28.004 110.548 28.236 110.108C28.476 109.668 28.712 109.236 28.944 108.812C29.176 108.388 29.392 107.992 29.592 107.624H29.748C29.836 108.392 29.916 109.136 29.988 109.856C30.068 110.568 30.148 111.272 30.228 111.968C30.308 112.656 30.388 113.34 30.468 114.02C30.548 114.692 30.636 115.36 30.732 116.024C30.636 116.008 30.54 116 30.444 116C30.356 116 30.264 116 30.168 116C30.072 116 29.976 116 29.88 116C29.792 116 29.7 116.008 29.604 116.024C29.516 114.96 29.428 113.928 29.34 112.928C29.252 111.928 29.144 110.908 29.016 109.868H28.992C28.44 110.876 27.896 111.88 27.36 112.88C26.832 113.872 26.328 114.912 25.848 116H25.74C25.26 114.992 24.756 113.984 24.228 112.976C23.708 111.96 23.184 110.924 22.656 109.868H22.632C22.576 110.364 22.512 110.904 22.44 111.488C22.376 112.064 22.316 112.636 22.26 113.204C22.204 113.764 22.156 114.296 22.116 114.8C22.076 115.296 22.056 115.704 22.056 116.024C21.928 116.008 21.788 116 21.636 116C21.484 116 21.344 116.008 21.216 116.024C21.32 115.376 21.428 114.692 21.54 113.972C21.652 113.252 21.76 112.528 21.864 111.8C21.968 111.072 22.064 110.356 22.152 109.652C22.24 108.94 22.316 108.264 22.38 107.624H22.584Z" fill="#C1A45C"/>
<path d="M34.5681 107.624C35.1201 108.76 35.6761 109.864 36.2361 110.936C36.8041 112.008 37.3961 113.108 38.0121 114.236C38.0921 114.084 38.2081 113.868 38.3601 113.588C38.5121 113.3 38.6881 112.972 38.8881 112.604C39.0881 112.236 39.3001 111.84 39.5241 111.416C39.7561 110.984 39.9881 110.548 40.2201 110.108C40.4601 109.668 40.6961 109.236 40.9281 108.812C41.1601 108.388 41.3761 107.992 41.5761 107.624H41.7321C41.8201 108.392 41.9001 109.136 41.9721 109.856C42.0521 110.568 42.1321 111.272 42.2121 111.968C42.2921 112.656 42.3721 113.34 42.4521 114.02C42.5321 114.692 42.6201 115.36 42.7161 116.024C42.6201 116.008 42.5241 116 42.4281 116C42.3401 116 42.2481 116 42.1521 116C42.0561 116 41.9601 116 41.8641 116C41.7761 116 41.6841 116.008 41.5881 116.024C41.5001 114.96 41.4121 113.928 41.3241 112.928C41.2361 111.928 41.1281 110.908 41.0001 109.868H40.9761C40.4241 110.876 39.8801 111.88 39.3441 112.88C38.8161 113.872 38.3121 114.912 37.8321 116H37.7241C37.2441 114.992 36.7401 113.984 36.2121 112.976C35.6921 111.96 35.1681 110.924 34.6401 109.868H34.6161C34.5601 110.364 34.4961 110.904 34.4241 111.488C34.3601 112.064 34.3001 112.636 34.2441 113.204C34.1881 113.764 34.1401 114.296 34.1001 114.8C34.0601 115.296 34.0401 115.704 34.0401 116.024C33.9121 116.008 33.7721 116 33.6201 116C33.4681 116 33.3281 116.008 33.2001 116.024C33.3041 115.376 33.4121 114.692 33.5241 113.972C33.6361 113.252 33.7441 112.528 33.8481 111.8C33.9521 111.072 34.0481 110.356 34.1361 109.652C34.2241 108.94 34.3001 108.264 34.3641 107.624H34.5681Z" fill="#C1A45C"/>
<path d="M52.0361 111.68C52.0361 110.544 52.0321 109.668 52.0241 109.052C52.0161 108.436 51.9961 108.012 51.9641 107.78C52.0521 107.796 52.1361 107.812 52.2161 107.828C52.2961 107.836 52.3761 107.84 52.4561 107.84C52.5601 107.84 52.6801 107.82 52.8161 107.78C52.7921 108.06 52.7681 108.396 52.7441 108.788C52.7201 109.172 52.7001 109.588 52.6841 110.036C52.6681 110.476 52.6521 110.932 52.6361 111.404C52.6201 111.868 52.6081 112.32 52.6001 112.76C52.5921 113.296 52.5081 113.776 52.3481 114.2C52.1961 114.624 51.9761 114.984 51.6881 115.28C51.4001 115.576 51.0441 115.8 50.6201 115.952C50.2041 116.104 49.7241 116.18 49.1801 116.18C47.9801 116.18 47.1081 115.908 46.5641 115.364C46.0201 114.82 45.7481 113.96 45.7481 112.784C45.7481 112.408 45.7561 112.076 45.7721 111.788C45.7961 111.492 45.8081 111.192 45.8081 110.888C45.8081 110.216 45.8001 109.62 45.7841 109.1C45.7681 108.58 45.7521 108.14 45.7361 107.78C45.8321 107.796 45.9361 107.812 46.0481 107.828C46.1601 107.836 46.2641 107.84 46.3601 107.84C46.4481 107.84 46.5321 107.836 46.6121 107.828C46.7001 107.812 46.7881 107.796 46.8761 107.78C46.8601 107.956 46.8441 108.188 46.8281 108.476C46.8121 108.756 46.7961 109.076 46.7801 109.436C46.7641 109.796 46.7521 110.184 46.7441 110.6C46.7361 111.016 46.7321 111.448 46.7321 111.896C46.7321 112.168 46.7361 112.452 46.7441 112.748C46.7521 113.036 46.7801 113.32 46.8281 113.6C46.8761 113.872 46.9521 114.136 47.0561 114.392C47.1681 114.64 47.3241 114.86 47.5241 115.052C47.7241 115.236 47.9761 115.384 48.2801 115.496C48.5841 115.6 48.9601 115.652 49.4081 115.652C49.8481 115.652 50.2161 115.588 50.5121 115.46C50.8161 115.332 51.0641 115.164 51.2561 114.956C51.4481 114.748 51.5961 114.508 51.7001 114.236C51.8121 113.964 51.8921 113.68 51.9401 113.384C51.9881 113.088 52.0161 112.792 52.0241 112.496C52.0321 112.2 52.0361 111.928 52.0361 111.68Z" fill="#C1A45C"/>
<path d="M63.2 116.18C62.28 115.116 61.3 114.028 60.26 112.916C59.22 111.796 58.18 110.684 57.14 109.58C57.132 109.804 57.124 110.104 57.116 110.48C57.108 110.856 57.104 111.368 57.104 112.016C57.104 112.184 57.104 112.392 57.104 112.64C57.112 112.888 57.116 113.148 57.116 113.42C57.124 113.692 57.132 113.968 57.14 114.248C57.148 114.528 57.156 114.788 57.164 115.028C57.172 115.268 57.18 115.48 57.188 115.664C57.196 115.84 57.204 115.96 57.212 116.024C57.084 116.008 56.944 116 56.792 116C56.632 116 56.484 116.008 56.348 116.024C56.364 115.944 56.38 115.796 56.396 115.58C56.42 115.364 56.44 115.108 56.456 114.812C56.472 114.508 56.488 114.18 56.504 113.828C56.528 113.476 56.544 113.124 56.552 112.772C56.568 112.42 56.58 112.076 56.588 111.74C56.596 111.404 56.6 111.104 56.6 110.84C56.6 110.072 56.596 109.412 56.588 108.86C56.588 108.308 56.58 107.896 56.564 107.624H56.756C57.244 108.152 57.764 108.72 58.316 109.328C58.876 109.928 59.428 110.524 59.972 111.116C60.524 111.7 61.044 112.256 61.532 112.784C62.028 113.304 62.46 113.748 62.828 114.116V112.484C62.828 111.644 62.82 110.828 62.804 110.036C62.796 109.236 62.772 108.484 62.732 107.78C62.892 107.82 63.028 107.84 63.14 107.84C63.236 107.84 63.364 107.82 63.524 107.78C63.508 107.956 63.488 108.22 63.464 108.572C63.448 108.924 63.428 109.3 63.404 109.7C63.388 110.1 63.372 110.492 63.356 110.876C63.34 111.26 63.332 111.568 63.332 111.8C63.332 112 63.332 112.24 63.332 112.52C63.332 112.792 63.332 113.076 63.332 113.372C63.34 113.668 63.344 113.968 63.344 114.272C63.352 114.568 63.356 114.848 63.356 115.112C63.364 115.368 63.368 115.592 63.368 115.784C63.368 115.96 63.368 116.092 63.368 116.18H63.2Z" fill="#C1A45C"/>
<path d="M67.1038 110.888C67.1038 110.36 67.0918 109.844 67.0678 109.34C67.0518 108.828 67.0318 108.308 67.0078 107.78C67.1118 107.796 67.2118 107.812 67.3078 107.828C67.4038 107.836 67.4998 107.84 67.5958 107.84C67.6918 107.84 67.7878 107.836 67.8838 107.828C67.9798 107.812 68.0798 107.796 68.1838 107.78C68.1598 108.308 68.1358 108.828 68.1118 109.34C68.0958 109.844 68.0878 110.36 68.0878 110.888V112.952C68.0878 113.48 68.0958 114 68.1118 114.512C68.1358 115.024 68.1598 115.528 68.1838 116.024C67.9998 116.008 67.8038 116 67.5958 116C67.3878 116 67.1918 116.008 67.0078 116.024C67.0318 115.528 67.0518 115.024 67.0678 114.512C67.0918 114 67.1038 113.48 67.1038 112.952V110.888Z" fill="#C1A45C"/>
<path d="M73.4317 110.888C73.4317 110.056 73.4197 109.228 73.3957 108.404C73.1877 108.404 72.9677 108.408 72.7357 108.416C72.5117 108.416 72.2837 108.424 72.0517 108.44C71.8277 108.448 71.6077 108.46 71.3917 108.476C71.1837 108.492 70.9957 108.512 70.8277 108.536C70.8677 108.392 70.8877 108.264 70.8877 108.152C70.8877 108.064 70.8677 107.94 70.8277 107.78C71.3557 107.796 71.8717 107.812 72.3757 107.828C72.8797 107.836 73.3957 107.84 73.9237 107.84C74.4517 107.84 74.9677 107.836 75.4717 107.828C75.9757 107.812 76.4917 107.796 77.0197 107.78C76.9797 107.94 76.9597 108.068 76.9597 108.164C76.9597 108.268 76.9797 108.392 77.0197 108.536C76.8517 108.512 76.6597 108.492 76.4437 108.476C76.2357 108.46 76.0157 108.448 75.7837 108.44C75.5597 108.424 75.3317 108.416 75.0997 108.416C74.8757 108.408 74.6597 108.404 74.4517 108.404C74.4277 109.228 74.4157 110.056 74.4157 110.888V112.952C74.4157 113.48 74.4237 114 74.4397 114.512C74.4637 115.024 74.4877 115.528 74.5117 116.024C74.3277 116.008 74.1317 116 73.9237 116C73.7157 116 73.5197 116.008 73.3357 116.024C73.3597 115.528 73.3797 115.024 73.3957 114.512C73.4197 114 73.4317 113.48 73.4317 112.952V110.888Z" fill="#C1A45C"/>
<path d="M81.7556 112.652C81.6756 112.516 81.5556 112.32 81.3956 112.064C81.2436 111.8 81.0716 111.512 80.8796 111.2C80.6956 110.88 80.4996 110.548 80.2916 110.204C80.0836 109.852 79.8836 109.52 79.6916 109.208C79.5076 108.888 79.3396 108.604 79.1876 108.356C79.0356 108.1 78.9196 107.908 78.8396 107.78C78.9516 107.796 79.0596 107.812 79.1636 107.828C79.2756 107.836 79.3876 107.84 79.4996 107.84C79.6116 107.84 79.7196 107.836 79.8236 107.828C79.9356 107.812 80.0476 107.796 80.1596 107.78C80.5196 108.476 80.8836 109.16 81.2516 109.832C81.6276 110.504 82.0236 111.204 82.4396 111.932C82.6236 111.644 82.8156 111.328 83.0156 110.984C83.2156 110.64 83.4156 110.288 83.6156 109.928C83.8156 109.568 84.0076 109.208 84.1916 108.848C84.3756 108.48 84.5476 108.124 84.7076 107.78C84.9076 107.82 85.0636 107.84 85.1756 107.84C85.2876 107.84 85.4436 107.82 85.6436 107.78C85.2596 108.364 84.9156 108.892 84.6116 109.364C84.3076 109.836 84.0396 110.264 83.8076 110.648C83.5756 111.032 83.3716 111.38 83.1956 111.692C83.0196 111.996 82.8676 112.272 82.7396 112.52C82.7396 112.816 82.7396 113.132 82.7396 113.468C82.7476 113.804 82.7556 114.136 82.7636 114.464C82.7716 114.784 82.7796 115.084 82.7876 115.364C82.8036 115.636 82.8196 115.856 82.8356 116.024C82.6516 116.008 82.4556 116 82.2476 116C82.0396 116 81.8436 116.008 81.6596 116.024C81.7076 115.608 81.7356 115.104 81.7436 114.512C81.7516 113.92 81.7556 113.3 81.7556 112.652Z" fill="#C1A45C"/>
<defs>
<filter id="filter0_d_300_155" x="2.75626" y="0" width="82.7424" height="76.4104" filterUnits="userSpaceOnUse" color-interpolation-filters="sRGB">
<feFlood flood-opacity="0" result="BackgroundImageFix"/>
<feColorMatrix in="SourceAlpha" type="matrix" values="0 0 0 0 0 0 0 0 0 0 0 0 0 0 0 0 0 0 127 0" result="hardAlpha"/>
<feOffset dx="2" dy="2"/>
<feComposite in2="hardAlpha" operator="out"/>
<feColorMatrix type="matrix" values="0 0 0 0 0.756863 0 0 0 0 0.643137 0 0 0 0 0.360784 0 0 0 1 0"/>
<feBlend mode="normal" in2="BackgroundImageFix" result="effect1_dropShadow_300_155"/>
<feBlend mode="normal" in="SourceGraphic" in2="effect1_dropShadow_300_155" result="shape"/>
</filter>
</defs>
</svg>
